<svg width="157" height="52" viewBox="0 0 157 52" fill="none" xmlns="http://www.w3.org/2000/svg">
<circle cx="3.4321" cy="3.43284" r="3.43186" fill="#52D3FF"/>
<circle cx="3.43186" cy="33.3381" r="3.43186" fill="#52D3FF"/>
<circle cx="3.43198" cy="18.386" r="3.43186" fill="#52D3FF"/>
<circle cx="3.43198" cy="48.2917" r="3.43186" fill="#52D3FF"/>
<circle cx="78.1967" cy="3.43186" r="3.43186" fill="#52D3FF"/>
<circle cx="78.1968" cy="33.3381" r="3.43186" fill="#52D3FF"/>
<circle cx="78.1966" cy="18.3855" r="3.43186" fill="#52D3FF"/>
<circle cx="78.1967" cy="48.2912" r="3.43186" fill="#52D3FF"/>
<circle cx="18.3849" cy="3.43235" r="3.43186" fill="#52D3FF"/>
<circle cx="18.3847" cy="33.3386" r="3.43186" fill="#52D3FF"/>
<circle cx="18.3848" cy="18.3855" r="3.43186" fill="#52D3FF"/>
<circle cx="18.3849" cy="48.2912" r="3.43186" fill="#52D3FF"/>
<circle cx="93.1497" cy="3.43235" r="3.43186" fill="#52D3FF"/>
<circle cx="93.1495" cy="33.3381" r="3.43186" fill="#52D3FF"/>
<circle cx="93.1495" cy="18.385" r="3.43186" fill="#52D3FF"/>
<circle cx="93.1495" cy="48.2907" r="3.43186" fill="#52D3FF"/>
<circle cx="33.3379" cy="3.43235" r="3.43186" fill="#52D3FF"/>
<circle cx="33.3376" cy="33.3381" r="3.43186" fill="#52D3FF"/>
<circle cx="33.3376" cy="18.385" r="3.43186" fill="#52D3FF"/>
<circle cx="33.3379" cy="48.2917" r="3.43186" fill="#52D3FF"/>
<circle cx="108.103" cy="3.43235" r="3.43186" fill="#52D3FF"/>
<circle cx="108.102" cy="33.3386" r="3.43186" fill="#52D3FF"/>
<circle cx="108.103" cy="18.3855" r="3.43186" fill="#52D3FF"/>
<circle cx="108.103" cy="48.2912" r="3.43186" fill="#52D3FF"/>
<circle cx="48.2907" cy="3.43186" r="3.43186" fill="#52D3FF"/>
<circle cx="48.2907" cy="33.3376" r="3.43186" fill="#52D3FF"/>
<circle cx="48.2906" cy="18.385" r="3.43186" fill="#52D3FF"/>
<circle cx="48.2907" cy="48.2912" r="3.43186" fill="#52D3FF"/>
<circle cx="123.055" cy="3.43235" r="3.43186" fill="#52D3FF"/>
<circle cx="123.056" cy="33.3386" r="3.43186" fill="#52D3FF"/>
<circle cx="123.056" cy="18.385" r="3.43186" fill="#52D3FF"/>
<circle cx="123.056" cy="48.2912" r="3.43186" fill="#52D3FF"/>
<circle cx="63.2439" cy="3.43235" r="3.43186" fill="#52D3FF"/>
<circle cx="63.2436" cy="33.3386" r="3.43186" fill="#52D3FF"/>
<circle cx="63.2436" cy="18.3855" r="3.43186" fill="#52D3FF"/>
<circle cx="63.2439" cy="48.2917" r="3.43186" fill="#52D3FF"/>
<circle cx="138.009" cy="3.43186" r="3.43186" fill="#52D3FF"/>
<circle cx="138.009" cy="33.3381" r="3.43186" fill="#52D3FF"/>
<circle cx="138.009" cy="18.3855" r="3.43186" fill="#52D3FF"/>
<circle cx="138.009" cy="48.2912" r="3.43186" fill="#52D3FF"/>
<circle cx="152.962" cy="3.43284" r="3.43186" fill="#52D3FF"/>
<circle cx="152.962" cy="33.3386" r="3.43186" fill="#52D3FF"/>
<circle cx="152.962" cy="18.3855" r="3.43186" fill="#52D3FF"/>
<circle cx="152.962" cy="48.2912" r="3.43186" fill="#52D3FF"/>
</svg>
