<svg width="47" height="45" viewBox="0 0 47 45" fill="none" xmlns="http://www.w3.org/2000/svg">
<path d="M2.60806 40.3781C1.12502 36.4651 0.368623 32.5626 0.338876 28.6704C0.351649 24.7866 1.0322 21.1003 2.38051 17.6116C3.73719 14.0803 5.74492 10.8316 8.40371 7.8654C11.105 4.9076 14.4198 2.4237 18.3479 0.413711L23.1809 4.80855C23.6326 5.20649 23.9059 5.61352 24.0008 6.02964C24.1381 6.45411 24.1438 6.87476 24.0177 7.2916C23.9424 7.67427 23.7822 8.04023 23.5368 8.38946C23.2915 8.7387 23.0162 9.01581 22.711 9.22077C21.7192 9.99737 20.6309 11.1525 19.4462 12.6861C18.3123 14.1855 17.3409 15.9818 16.5319 18.0751C15.7738 20.1342 15.3395 22.4557 15.2289 25.0396C15.1184 27.6235 15.6203 30.3498 16.7345 33.2186C17.3257 34.7039 17.3297 35.9192 16.7464 36.8644C16.1715 37.7671 15.2511 38.2928 13.9853 38.4414L2.60806 40.3781ZM24.5481 44.6914C23.065 40.7785 22.3087 36.8759 22.2789 32.9837C22.2917 29.0999 22.9722 25.4136 24.3205 21.9249C25.6772 18.3936 27.685 15.1449 30.3437 12.1787C33.045 9.22091 36.3598 6.73702 40.288 4.72702L45.121 9.12186C45.5727 9.51981 45.846 9.92684 45.9408 10.3429C46.0782 10.7674 46.0838 11.1881 45.9577 11.6049C45.8825 11.9876 45.7222 12.3535 45.4769 12.7028C45.2316 13.052 44.9563 13.3291 44.651 13.5341C43.6592 14.3107 42.571 15.4658 41.3862 16.9994C40.2523 18.4988 39.2809 20.2952 38.4719 22.3884C37.7138 24.4475 37.2795 26.769 37.169 29.3529C37.0585 31.9368 37.5603 34.6631 38.6745 37.5319C39.2657 39.0172 39.2697 40.2325 38.6864 41.1777C38.1115 42.0804 37.1911 42.6061 35.9254 42.7547L24.5481 44.6914Z" fill="url(#paint0_linear)" fill-opacity="0.89"/>
<defs>
<linearGradient id="paint0_linear" x1="35.1278" y1="-42.9845" x2="-14.5" y2="153" gradientUnits="userSpaceOnUse">
<stop stop-color="white"/>
<stop offset="1" stop-color="#6A09A0"/>
</linearGradient>
</defs>
</svg>
